# xmcd CD database file
#
# Track frame offsets:
#	150
#	23205
#	45468
#
# Disc length: 874 seconds
#
# Revision: 0
# Processed by: cddbd v1.5.1PL2 Copyright (c) Steve Scherf et al.
# Submitted via: CDex 1.51
#
DISCID=1a036803
DTITLE=アンダーグラフ - パラダイム
DYEAR=2005
DGENRE=JPop
TTITLE0=パラダイム
TTITLE1=君の日、二月、帰り道
TTITLE2=遠き日
EXTD=YEAR: 2005
EXTT0=
EXTT1=
EXTT2=
PLAYORDER=
